<?xml version="1.0" standalone="no"?>
<!DOCTYPE svg PUBLIC "-//W3C//DTD SVG 20010904//EN"
 "http://www.w3.org/TR/2001/REC-SVG-20010904/DTD/svg10.dtd">
<svg version="1.0" xmlns="http://www.w3.org/2000/svg"
 width="240.000000pt" height="240.000000pt" viewBox="0 0 240.000000 240.000000"
 preserveAspectRatio="xMidYMid meet">
<metadata>
Created by potrace 1.11, written by Peter Selinger 2001-2013
</metadata>
<g transform="translate(0.000000,240.000000) scale(0.100000,-0.100000)"
fill="#000000" stroke="none">
<path d="M992 2376 c-257 -49 -458 -157 -642 -345 -157 -160 -249 -321 -307
-538 -25 -90 -27 -113 -27 -293 0 -180 2 -203 27 -293 60 -224 151 -380 317
-547 167 -166 323 -257 547 -317 90 -25 113 -27 293 -27 180 0 203 2 293 27
224 60 380 151 547 317 166 167 257 323 317 547 25 90 27 113 27 293 0 180 -2
203 -27 293 -60 224 -151 380 -317 547 -168 167 -325 259 -547 317 -82 21
-126 26 -263 29 -112 2 -188 -1 -238 -10z m378 -90 c276 -42 532 -195 700
-418 108 -143 186 -329 211 -497 27 -190 -1 -410 -74 -589 -119 -289 -383
-524 -698 -620 -209 -64 -477 -54 -692 26 -590 221 -870 908 -602 1478 56 120
112 200 207 300 245 255 595 373 948 320z"/>
<path d="M1090 2220 c-236 -30 -431 -123 -595 -285 -97 -94 -151 -167 -205
-275 -145 -288 -143 -631 6 -925 75 -147 208 -294 351 -389 295 -193 691 -217
1008 -58 261 130 449 355 530 637 129 447 -64 923 -470 1163 -177 104 -429
157 -625 132z m735 -562 l40 -13 3 -59 c3 -53 1 -58 -15 -51 -89 39 -131 47
-218 43 -68 -3 -102 -10 -140 -29 -67 -32 -131 -97 -163 -167 -24 -52 -26 -68
-27 -182 0 -114 2 -130 26 -180 36 -77 80 -124 147 -157 52 -25 67 -28 162
-28 90 1 114 4 168 27 l62 26 0 -53 0 -52 -44 -17 c-104 -40 -270 -45 -366
-11 -116 41 -209 137 -251 262 -19 56 -23 88 -23 178 2 164 42 263 148 363 59
56 135 96 208 112 58 12 233 5 283 -12z m-657 -40 l3 -48 -135 0 -136 0 0
-410 0 -410 -55 0 -55 0 0 410 0 410 -130 0 -130 0 0 50 0 50 318 -2 317 -3 3
-47z"/>
</g>
</svg>
