<?xml version="1.0" standalone="no"?>
<!DOCTYPE svg PUBLIC "-//W3C//DTD SVG 20010904//EN"
 "http://www.w3.org/TR/2001/REC-SVG-20010904/DTD/svg10.dtd">
<svg version="1.0" xmlns="http://www.w3.org/2000/svg"
 width="240.000000pt" height="240.000000pt" viewBox="0 0 240.000000 240.000000"
 preserveAspectRatio="xMidYMid meet">
<metadata>
Created by potrace 1.11, written by Peter Selinger 2001-2013
</metadata>
<g transform="translate(0.000000,240.000000) scale(0.100000,-0.100000)"
fill="#000000" stroke="none">
<path d="M1130 2394 c-290 -23 -546 -136 -749 -329 -481 -458 -502 -1206 -46
-1684 233 -244 531 -373 865 -373 332 -1 632 129 865 373 597 625 344 1659
-475 1947 -133 46 -336 75 -460 66z m187 -104 c122 -13 228 -43 342 -96 308
-145 506 -383 603 -729 20 -69 23 -104 23 -255 -1 -160 -3 -184 -28 -275 -138
-502 -591 -836 -1101 -812 -497 23 -908 370 -1018 861 -29 127 -28 326 1 453
77 337 304 621 610 760 132 60 292 97 436 102 22 0 81 -4 132 -9z"/>
<path d="M1080 2223 c-245 -38 -429 -129 -598 -296 -274 -269 -372 -677 -251
-1042 236 -711 1127 -939 1669 -429 98 93 162 179 221 299 75 154 101 268 102
445 0 115 -4 163 -21 230 -47 194 -133 349 -267 485 -100 103 -176 158 -298
215 -132 64 -250 91 -402 94 -71 2 -141 1 -155 -1z m745 -566 c39 -14 40 -15
43 -69 l3 -55 -68 23 c-90 31 -210 32 -287 4 -76 -29 -139 -88 -178 -168 -32
-65 -33 -70 -33 -197 0 -122 2 -134 28 -187 31 -62 84 -116 149 -149 82 -42
255 -36 351 12 l37 19 0 -55 0 -54 -72 -23 c-100 -31 -257 -31 -341 -1 -174
64 -268 214 -270 428 -1 165 42 275 146 371 104 97 192 126 352 119 55 -2 118
-10 140 -18z m-665 -42 l0 -45 -130 0 -130 0 0 -410 0 -410 -55 0 -55 0 0 410
0 410 -130 0 -130 0 0 45 0 45 315 0 315 0 0 -45z"/>
</g>
</svg>
