<?xml version="1.0" standalone="no"?>
<!DOCTYPE svg PUBLIC "-//W3C//DTD SVG 20010904//EN"
 "http://www.w3.org/TR/2001/REC-SVG-20010904/DTD/svg10.dtd">
<svg version="1.0" xmlns="http://www.w3.org/2000/svg"
 width="240.000000pt" height="240.000000pt" viewBox="0 0 240.000000 240.000000"
 preserveAspectRatio="xMidYMid meet">
<metadata>
Created by potrace 1.11, written by Peter Selinger 2001-2013
</metadata>
<g transform="translate(0.000000,240.000000) scale(0.100000,-0.100000)"
fill="#000000" stroke="none">
<path d="M1016 2380 c-411 -65 -771 -353 -924 -740 -63 -160 -77 -237 -77
-440 0 -162 3 -196 24 -275 118 -451 436 -769 886 -886 79 -21 113 -24 275
-24 162 0 196 3 275 24 450 117 768 435 886 886 21 79 24 113 24 275 0 162 -3
196 -24 275 -116 446 -430 764 -871 882 -78 20 -123 25 -255 28 -88 2 -186 0
-219 -5z m459 -114 c118 -30 291 -113 386 -185 483 -366 576 -1060 207 -1539
-65 -83 -202 -207 -290 -261 -96 -60 -193 -101 -303 -131 -113 -31 -346 -39
-468 -16 -458 87 -814 452 -883 906 -89 590 298 1132 888 1245 116 22 338 13
463 -19z"/>
<path d="M1095 2219 c-277 -29 -536 -177 -705 -401 -262 -348 -274 -826 -30
-1189 56 -82 187 -213 269 -269 372 -250 867 -231 1211 48 370 299 487 803
285 1229 -155 328 -462 545 -825 583 -52 5 -102 9 -110 8 -8 0 -51 -4 -95 -9z
m706 -555 l69 -16 0 -60 c0 -53 -2 -59 -17 -53 -106 45 -218 57 -304 32 -168
-49 -256 -190 -247 -397 3 -85 8 -105 37 -164 40 -81 106 -138 189 -162 78
-23 197 -15 280 19 l62 25 0 -53 c0 -52 -1 -53 -38 -68 -53 -21 -145 -37 -213
-37 -235 0 -397 143 -430 378 -38 265 105 502 336 558 71 17 195 17 276 -2z
m-633 -46 l3 -48 -135 0 -136 0 0 -410 0 -410 -55 0 -55 0 -2 408 -3 407 -127
3 -128 3 0 49 0 50 318 -2 317 -3 3 -47z"/>
</g>
</svg>
